<?xml version="1.0" encoding="utf-8"?>
<!-- Generator: Adobe Illustrator 24.1.1, SVG Export Plug-In . SVG Version: 6.00 Build 0)  -->
<svg version="1.1" id="Capa_1" xmlns="http://www.w3.org/2000/svg" xmlns:xlink="http://www.w3.org/1999/xlink" x="0px" y="0px"
	 viewBox="0 0 57 57" style="enable-background:new 0 0 57 57;" xml:space="preserve">
<style type="text/css">
	.st0{fill:#EBEBEC;}
	.st1{fill:none;stroke:#00477F;stroke-width:1.5;stroke-miterlimit:10;}
	.st2{display:none;fill:#FFFFFF;}
	.st3{display:none;}
	.st4{display:inline;}
	.st5{stroke:#000000;stroke-width:1.25;stroke-miterlimit:10;}
	.st6{display:none;fill:#FFFFFF;stroke:#FFFFFF;stroke-miterlimit:10;}
	.st7{fill:#00477F;}
	.st8{display:none;fill:#00477F;}
</style>
<g>
	
		<image style="overflow:visible;opacity:0.6;" width="64" height="64" xlink:href="DC9C86B5.png"  transform="matrix(1 0 0 1 -3 -3)">
	</image>
	<g>
		<circle class="st0" cx="29.1" cy="27.3" r="24.9"/>
		<circle class="st1" cx="29.1" cy="27.3" r="24.9"/>
	</g>
</g>
<path class="st2" d="M36,35.6l-4.7-4.9c1.2-1.4,1.9-3.2,1.9-5.1c0-4.4-3.6-8-8-8s-8,3.6-8,8s3.6,8,8,8c1.6,0,3.2-0.5,4.6-1.4
	l4.7,4.9c0.2,0.2,0.5,0.3,0.7,0.3c0.3,0,0.5-0.1,0.7-0.3C36.4,36.7,36.4,36,36,35.6z M25.2,19.7c3.2,0,5.9,2.6,5.9,5.9
	s-2.6,5.9-5.9,5.9s-5.9-2.6-5.9-5.9S22,19.7,25.2,19.7z"/>
<g class="st3">
	<g class="st4">
		<path class="st5" d="M28.4,29.3C28.4,29.3,28.5,29.3,28.4,29.3C28.5,29.3,28.5,29.3,28.4,29.3c0.1,0,0.1,0,0.1,0
			c1.2,0,2.2-0.4,2.9-1.3c1.6-1.8,1.3-4.9,1.3-5.1c-0.1-2.2-1.1-3.2-2-3.7c-0.6-0.4-1.4-0.6-2.2-0.6l0,0l0,0l0,0
			c-0.5,0-1.4,0.1-2.2,0.6c-0.9,0.5-1.9,1.5-2,3.8c0,0.3-0.3,3.4,1.3,5.1C26.2,28.8,27.2,29.2,28.4,29.3z M25.3,23
			C25.3,22.9,25.3,22.9,25.3,23c0.1-3,2.2-3.3,3.1-3.3l0,0l0,0c1.1,0,3,0.5,3.1,3.3l0,0c0,0,0.3,2.8-1,4.3c-0.5,0.6-1.2,0.9-2.1,0.9
			l0,0l0,0l0,0c-0.9,0-1.6-0.3-2.1-0.9C25,25.8,25.3,23,25.3,23z"/>
		<path class="st5" d="M36.9,34.3L36.9,34.3L36.9,34.3c0-0.9-0.1-2.8-1.9-3.4l0,0c-1.9-0.5-3.4-1.5-3.4-1.6
			c-0.3-0.2-0.6-0.1-0.8,0.1c-0.2,0.3-0.1,0.6,0.1,0.8c0.1,0,1.7,1.2,3.8,1.7c1,0.3,1.1,1.4,1.1,2.3v0.1c0,0.4,0,0.9-0.1,1.3
			c-0.7,0.4-3.3,1.7-7.3,1.7s-6.6-1.3-7.3-1.7C21,35.3,21,34.7,21,34.3v-0.1c0-0.9,0.1-2,1.1-2.3c2.1-0.5,3.7-1.7,3.8-1.7
			c0.3-0.2,0.3-0.5,0.1-0.8c-0.2-0.3-0.5-0.3-0.8-0.1c0,0-1.6,1.1-3.4,1.6l0,0c-1.8,0.6-1.8,2.5-1.9,3.3v0.1l0,0
			c0,0.2,0,1.3,0.2,1.9c0,0.1,0.1,0.2,0.2,0.3s3.1,2,8,2s7.9-1.9,8-2s0.2-0.2,0.2-0.3C37,35.7,37,34.6,36.9,34.3z"/>
	</g>
</g>
<path class="st6" d="M39.5,19.6c-0.1-0.2-0.3-0.3-0.5-0.3H20.1c-0.2,0-0.4,0.1-0.5,0.3c-0.1,0.2-0.1,0.5,0.1,0.6l7.2,8.7V37
	c0,0.2,0.1,0.4,0.3,0.5c0.1,0.1,0.2,0.1,0.3,0.1c0.1,0,0.2,0,0.3-0.1l4.1-2c0.2-0.1,0.3-0.3,0.3-0.5v-6.1l7.2-8.7
	C39.5,20.1,39.6,19.8,39.5,19.6z M31.1,28.4C31,28.5,31,28.6,31,28.8v5.9l-2.8,1.4v-7.3c0-0.1,0-0.3-0.1-0.4l-6.5-7.9h16.2
	L31.1,28.4z"/>
<path class="st7" d="M40.1,33.8H29.9c0.9-0.9,2.8-1.5,4.8-1.5c1.7,0,3.4,0.4,4.4,1.2l0.4-0.6c-1.2-0.8-2.9-1.3-4.8-1.3
	c-0.7,0-1.5,0.1-2.2,0.2c0.6-0.2,1.1-0.4,1.7-0.5c1.7-0.4,3.4-0.3,4.5,0.2l0.3-0.7c-1.3-0.6-3.1-0.7-5-0.3c-2.1,0.4-3.9,1.5-4.8,2.7
	c-0.9-1.2-2.6-2.2-4.8-2.7c-1.9-0.4-3.7-0.3-5,0.3l0.3,0.7c1.2-0.5,2.8-0.6,4.5-0.2c0.6,0.1,1.2,0.3,1.7,0.5
	c-0.7-0.1-1.4-0.2-2.2-0.2c-1.9,0-3.7,0.5-4.8,1.3l0.4,0.6c1-0.7,2.7-1.2,4.4-1.2c2.1,0,3.9,0.6,4.8,1.5h-9.9
	c-0.2,0-0.4,0.2-0.4,0.4v1.5c0,0.2,0.2,0.4,0.4,0.4h21.5c0.2,0,0.4-0.2,0.4-0.4v-1.5C40.5,34,40.3,33.8,40.1,33.8z M19,34.6h10v0.8
	H19V34.6z M39.7,35.3h-10v-0.8h10V35.3z"/>
<path class="st8" d="M29.1,29.5c0.1,0.1,0.2,0.1,0.4,0c0.3-0.2,7.5-4,7.5-8c0-2.3-1.9-4.2-4.2-4.2c-1.4,0-2.7,0.7-3.5,1.8
	c-0.8-1.1-2.1-1.8-3.5-1.8c-2.3,0-4.2,1.9-4.2,4.2C21.7,25.5,28.8,29.4,29.1,29.5z M25.9,18.1c1.3,0,2.5,0.8,3.1,2
	c0.1,0.1,0.2,0.2,0.3,0.2c0.1,0,0.3-0.1,0.3-0.2c0.7-1.5,2.3-2.2,3.9-1.9c1.6,0.4,2.7,1.8,2.7,3.4c0,3.2-5.8,6.6-6.9,7.2
	c-1.1-0.6-6.9-4-6.9-7.2C22.4,19.6,24,18.1,25.9,18.1z"/>
<path class="st7" d="M35.8,18.5c-0.8-0.8-1.9-1.2-3.1-1.2c-0.9,0-1.7,0.2-2.4,0.7c-0.4,0.2-0.7,0.5-1,0.9c-0.3-0.4-0.6-0.7-1-0.9
	c-0.7-0.5-1.5-0.7-2.4-0.7c-1.2,0-2.3,0.4-3.1,1.2c-0.8,0.8-1.2,1.8-1.2,2.9c0,1.1,0.4,2.3,1.5,3.4c0.8,1.1,2.1,2.3,3.7,3.2
	c0.5,0.4,1.2,0.8,1.9,1.2c0.2,0.1,0.5,0.3,0.7,0.3c0.2,0,0.4-0.1,0.6-0.2c1.4-0.8,1.3-0.9,1.8-1.2c1.6-1.2,2.8-2.2,3.7-3.2
	c1-1.1,1.5-2.3,1.5-3.5C37,20.3,36.6,19.2,35.8,18.5z"/>
</svg>
