<?xml version="1.0" encoding="utf-8"?>
<!-- Generator: Adobe Illustrator 22.1.0, SVG Export Plug-In . SVG Version: 6.00 Build 0)  -->
<svg version="1.1" id="Capa_1" xmlns="http://www.w3.org/2000/svg" xmlns:xlink="http://www.w3.org/1999/xlink" x="0px" y="0px"
	 viewBox="0 0 60 60" style="enable-background:new 0 0 60 60;" xml:space="preserve">
<style type="text/css">
	.st0{stroke:#000000;stroke-width:0.5;stroke-miterlimit:10;}
</style>
<g>
	<path class="st0" d="M30.2,1C14.1,1,1,14.1,1,30.2s13.1,29.2,29.2,29.2s29.2-13.1,29.2-29.2S46.2,1,30.2,1z M30.2,57.4
		c-15,0-27.2-12.2-27.2-27.2S15.2,2.9,30.2,2.9s27.2,12.2,27.2,27.2S45.2,57.4,30.2,57.4z"/>
	<path class="st0" d="M30.2,6.8c-0.5,0-1,0.4-1,1v22.4H14.6c-0.5,0-1,0.4-1,1c0,0.5,0.4,1,1,1h15.6c0.5,0,1-0.4,1-1V7.8
		C31.1,7.3,30.7,6.8,30.2,6.8z"/>
</g>
</svg>
