<?xml version="1.0" encoding="utf-8"?>
<!-- Generator: Adobe Illustrator 23.1.0, SVG Export Plug-In . SVG Version: 6.00 Build 0)  -->
<svg version="1.1" id="Laag_1" xmlns="http://www.w3.org/2000/svg" xmlns:xlink="http://www.w3.org/1999/xlink" x="0px" y="0px"
	 viewBox="0 0 30 30" style="enable-background:new 0 0 30 30;" xml:space="preserve">
<style type="text/css">
	.st0{fill:#FFCC00;}
	.st1{fill:#FFFFFF;}
</style>
<path class="st0" d="M16.1,5.2l2.7,5.3c0.2,0.4,0.5,0.6,1,0.7l6,0.8c1.1,0.1,1.5,1.4,0.7,2.1l-4.4,4.1c-0.3,0.3-0.4,0.7-0.4,1.1
	l1,5.8c0.2,1-0.9,1.8-1.9,1.3l-5.4-2.7c-0.4-0.2-0.8-0.2-1.2,0L9,26.3C8,26.8,6.9,26,7.1,25l1-5.8c0.1-0.4-0.1-0.8-0.4-1.1L3.4,14
	c-0.8-0.7-0.3-2,0.7-2.1l6-0.8c0.4-0.1,0.8-0.3,1-0.7l2.7-5.3C14.3,4.2,15.6,4.2,16.1,5.2z"/>
<path class="st1" d="M26.6,14.4c0.5-0.5,0.6-1.1,0.4-1.8c-0.2-0.6-0.7-1.1-1.4-1.2l-5.8-0.8c-0.2,0-0.5-0.2-0.6-0.4L16.6,5
	c-0.3-0.6-0.9-1-1.6-1c-0.7,0-1.3,0.4-1.5,1l-2.6,5.2c-0.1,0.2-0.3,0.4-0.6,0.4l-5.8,0.8c-0.7,0.1-1.2,0.5-1.4,1.2
	c-0.2,0.6,0,1.3,0.4,1.8l4.2,4.1C7.9,18.6,8,18.9,8,19.1l-1,5.8c-0.1,0.6,0.2,1.3,0.7,1.7C8.2,27,8.9,27,9.5,26.7l5.2-2.7
	c0.2-0.1,0.5-0.1,0.7,0l5.2,2.7c0.3,0.1,0.5,0.2,0.8,0.2c0.4,0,0.7-0.1,1-0.3c0.5-0.4,0.8-1,0.7-1.7l-1-5.8c0-0.2,0-0.5,0.2-0.7
	L26.6,14.4z M21.2,19.3l1,5.8c0.1,0.3-0.1,0.6-0.3,0.7c-0.2,0.2-0.5,0.2-0.8,0.1l-5.2-2.7c-0.3-0.1-0.5-0.2-0.8-0.2
	s-0.6,0.1-0.8,0.2L9,25.8c-0.2,0.2-0.5,0.2-0.8,0C8,25.6,7.9,25.3,7.9,25l1-5.8c0.1-0.6-0.1-1.1-0.5-1.5l-4.2-4.1
	C4,13.5,3.9,13.2,4,12.9s0.3-0.5,0.6-0.5l5.8-0.8c0.6-0.1,1.1-0.4,1.3-0.9l2.6-5.2C14.5,5.1,14.8,5,15.1,5s0.6,0.2,0.7,0.4l2.6,5.2
	c0.3,0.5,0.7,0.9,1.3,0.9l5.8,0.8c0.3,0,0.5,0.2,0.6,0.5s0,0.6-0.2,0.8l-4.2,4.1C21.3,18.2,21.1,18.7,21.2,19.3z"/>
</svg>
